<?xml version="1.0" encoding="iso-8859-1"?>
<!-- Generator: Adobe Illustrator 19.0.0, SVG Export Plug-In . SVG Version: 6.00 Build 0)  -->
<svg xmlns="http://www.w3.org/2000/svg" xmlns:xlink="http://www.w3.org/1999/xlink" version="1.1" id="Layer_1" x="0px" y="0px" viewBox="0 0 512 512" style="enable-background:new 0 0 512 512;" xml:space="preserve" width="512px" height="512px">
<g>
	<g>
		<polygon points="437.16,317.767 426.234,329.684 449.482,350.995 449.482,363.789 363.251,363.789 363.251,350.995     386.499,329.684 375.573,317.767 347.082,343.883 347.082,379.958 465.651,379.958 465.651,343.883   " fill="#51cbce"/>
	</g>
</g>
<g>
	<g>
		<path d="M430.496,244.5c0,4.669-0.981,7.973-2.917,9.82c-4.087,3.901-26.872,2.828-29.195,2.828v16.168    c1.943,0,19.701,0.397,21.994,0.168v17.098c0,7.974-6.488,14.462-14.462,14.462h-0.179c-7.974,0-14.462-6.488-14.462-14.462    v-16.797h-16.168v16.797c0,16.89,13.741,30.631,30.63,30.631h0.179c16.89,0,30.631-13.741,30.631-30.631v-22.73    c0.755-0.563,1.491-1.165,2.192-1.835c5.258-5.015,7.925-12.256,7.925-21.518H430.496z" fill="#51cbce"/>
	</g>
</g>
<g>
	<g>
		<polygon points="135.349,275.729 124.424,287.646 147.672,308.957 147.672,321.752 61.44,321.752 61.44,308.957 84.688,287.646     73.762,275.729 45.272,301.845 45.272,337.92 163.84,337.92 163.84,301.845   " fill="#51cbce"/>
	</g>
</g>
<g>
	<g>
		<path d="M128.686,202.462c0,4.669-0.981,7.973-2.917,9.82c-4.087,3.9-26.873,2.828-29.196,2.828v16.168    c1.943,0,19.701,0.397,21.995,0.168v17.098c0,7.974-6.488,14.462-14.462,14.462h-0.18c-7.973,0-14.461-6.488-14.461-14.462    v-16.797H73.297v16.797c0,16.89,13.741,30.631,30.63,30.631h0.18c16.888,0,30.629-13.741,30.629-30.631v-22.73    c0.755-0.564,1.491-1.165,2.193-1.835c5.258-5.015,7.924-12.256,7.924-21.518H128.686z" fill="#51cbce"/>
	</g>
</g>
<g>
	<g>
		<polygon points="286.793,150.693 275.868,162.61 299.116,183.921 299.116,196.716 212.884,196.716 212.884,183.921     236.132,162.61 225.207,150.693 196.716,176.809 196.716,212.884 315.284,212.884 315.284,176.809   " fill="#51cbce"/>
	</g>
</g>
<g>
	<g>
		<path d="M280.131,77.426c0,4.669-0.981,7.973-2.917,9.82c-4.086,3.9-26.872,2.828-29.195,2.828v16.168    c1.943,0,19.702,0.397,21.996,0.168v17.098c0,7.974-6.488,14.462-14.462,14.462h-0.18c-7.974,0-14.462-6.488-14.462-14.462    v-16.797h-16.168v16.797c-0.001,16.89,13.74,30.631,30.629,30.631h0.18c16.888,0,30.631-13.741,30.631-30.631v-22.73    c0.755-0.563,1.491-1.165,2.192-1.835c5.258-5.015,7.925-12.256,7.925-21.518H280.131z" fill="#51cbce"/>
	</g>
</g>
<g>
	<g>
		<path d="M361.095,204.8V37.726H150.905v125.036H0v210.19h81.91l62.247,56.466v-56.466h66.032V247.916h10.179l30.852,82.313    l30.853-82.313h19.738v167.074h66.033v56.466l62.246-56.466H512V204.8H361.095z M194.021,356.783h-66.032v36.136l-39.838-36.136    H16.168V178.931h134.737v68.985h43.116V356.783z M270.865,231.747l-19.646,52.415l-19.646-52.415h-64.5V53.895h177.853v177.853    H270.865z M495.832,398.821H423.85l-39.838,36.136v-36.136h-66.033V247.916h43.116v-26.947h134.737V398.821z" fill="#51cbce"/>
	</g>
</g>
<g>
	<g>
		<g>
			<rect x="203.722" y="458.105" width="16.168" height="16.168" fill="#51cbce"/>
			<rect x="292.109" y="458.105" width="16.168" height="16.168" fill="#51cbce"/>
			<rect x="247.916" y="458.105" width="16.168" height="16.168" fill="#51cbce"/>
		</g>
	</g>
</g>
<g>
</g>
<g>
</g>
<g>
</g>
<g>
</g>
<g>
</g>
<g>
</g>
<g>
</g>
<g>
</g>
<g>
</g>
<g>
</g>
<g>
</g>
<g>
</g>
<g>
</g>
<g>
</g>
<g>
</g>
</svg>
