<?xml version="1.0" encoding="iso-8859-1"?>
<!-- Generator: Adobe Illustrator 19.0.0, SVG Export Plug-In . SVG Version: 6.00 Build 0)  -->
<svg xmlns="http://www.w3.org/2000/svg" xmlns:xlink="http://www.w3.org/1999/xlink" version="1.1" id="Layer_1" x="0px" y="0px" viewBox="0 0 512 512" style="enable-background:new 0 0 512 512;" xml:space="preserve" width="512px" height="512px">
<g>
	<g>
		<path d="M133.164,429.958h-15.053v-8.421l10.01-11.023c5.707-6.286,8.85-14.423,8.85-22.912v-27.29    c0-20.014-16.283-36.296-36.296-36.296H84.757c-20.014,0-36.296,16.283-36.296,36.296v27.289c0,8.49,3.143,16.627,8.85,22.912    l10.01,11.023v8.42H52.267c-19.714,0-35.752,16.039-35.752,35.752v38.62c0,4.237,3.434,7.671,7.671,7.671h137.061    c4.236,0,7.671-3.433,7.671-7.671V465.71C168.916,445.996,152.878,429.958,133.164,429.958z M153.574,496.658H31.855V465.71    c0-11.255,9.156-20.41,20.41-20.41H74.99c4.236,0,7.671-3.433,7.671-7.671v-19.325c0-2.588-1.281-4.877-3.244-6.266L68.668,400.2    c-3.138-3.456-4.866-7.931-4.866-12.599v-27.289c0-11.554,9.4-20.955,20.955-20.955h15.917c11.554,0,20.955,9.4,20.955,20.955    v27.289c0,4.668-1.728,9.143-4.866,12.599l-10.748,11.839c-1.963,1.389-3.244,3.678-3.244,6.266v19.325    c0,4.237,3.434,7.671,7.671,7.671h22.724c11.255,0,20.41,9.156,20.41,20.41V496.658z" fill="#51cbce"/>
	</g>
</g>
<g>
	<g>
		<path d="M459.733,105.943H444.68v-8.422l10.01-11.022c5.707-6.286,8.85-14.423,8.85-22.912v-27.29    C463.539,16.284,447.256,0,427.243,0h-15.917c-20.014,0-36.296,16.284-36.296,36.297v27.289c0,8.489,3.143,16.626,8.85,22.912    l10.01,11.022v8.422h-15.054c-19.714,0-35.752,16.039-35.752,35.752v38.618c0,4.237,3.435,7.671,7.671,7.671h137.061    c4.236,0,7.671-3.433,7.671-7.671v-38.617C495.485,121.982,479.447,105.943,459.733,105.943z M358.425,172.642v-30.947    c0-11.255,9.156-20.41,20.41-20.41h22.724c4.236,0,7.671-3.433,7.671-7.671V94.287c0-2.588-1.282-4.877-3.244-6.266    l-10.748-11.838c-3.139-3.457-4.867-7.931-4.867-12.599V36.297c0-11.555,9.4-20.956,20.955-20.956h15.917    c11.554,0,20.955,9.4,20.955,20.956v27.289c0,4.668-1.729,9.143-4.866,12.599l-10.748,11.838    c-1.963,1.389-3.244,3.678-3.244,6.266v19.326c0,4.237,3.434,7.671,7.671,7.671h22.724c11.255,0,20.41,9.156,20.41,20.41v30.947    H358.425z" fill="#51cbce"/>
	</g>
</g>
<g>
	<g>
		<path d="M341.274,91.194l-33.779-33.779c-2.996-2.995-7.853-2.995-10.848,0c-2.996,2.997-2.996,7.853,0,10.849l20.685,20.685    H92.847c-4.236,0-7.671,3.433-7.671,7.671v23.419c0,4.237,3.434,7.671,7.671,7.671s7.671-3.433,7.671-7.671V104.29h216.813    l-20.684,20.684c-2.996,2.997-2.996,7.853,0,10.849c1.497,1.497,3.461,2.246,5.424,2.246s3.926-0.749,5.424-2.246l33.779-33.778    c1.439-1.439,2.247-3.389,2.247-5.425C343.521,94.584,342.713,92.635,341.274,91.194z" fill="#51cbce"/>
	</g>
</g>
<g>
	<g>
		<path d="M92.847,146.851c-4.236,0-7.671,3.433-7.671,7.671V288.4c0,4.237,3.434,7.671,7.671,7.671s7.671-3.433,7.671-7.671    V154.521C100.518,150.284,97.084,146.851,92.847,146.851z" fill="#51cbce"/>
	</g>
</g>
<g>
	<g>
		<path d="M418.94,202.499c-4.236,0-7.671,3.433-7.671,7.671v204.872H190.423l20.685-20.685c2.996-2.997,2.996-7.853,0-10.849    c-2.996-2.995-7.853-2.995-10.848,0l-33.779,33.779c-2.996,2.997-2.996,7.853,0,10.849l33.779,33.779    c1.497,1.497,3.461,2.246,5.424,2.246s3.926-0.749,5.424-2.246c2.996-2.997,2.996-7.853,0-10.849l-20.685-20.684H418.94    c4.236,0,7.671-3.433,7.671-7.671V210.17C426.611,205.933,423.176,202.499,418.94,202.499z" fill="#51cbce"/>
	</g>
</g>
<g>
	<g>
		<path d="M306.866,220.554c-0.748-19.693-16.761-35.706-36.455-36.455c-10.427-0.394-20.294,3.362-27.792,10.582    c-7.502,7.223-11.633,16.934-11.633,27.344c0,4.237,3.435,7.671,7.671,7.671c4.236,0,7.671-3.433,7.671-7.671    c0-6.202,2.462-11.989,6.931-16.293c4.467-4.301,10.341-6.542,16.569-6.303c11.726,0.447,21.261,9.981,21.706,21.707    c0.403,10.603-6.446,19.943-16.653,22.714c-8.015,2.176-13.614,9.511-13.614,17.835v19.296c0,4.237,3.435,7.671,7.671,7.671    c4.236,0,7.671-3.433,7.671-7.671v-19.296c0-1.418,0.942-2.663,2.292-3.029C296.042,254.004,307.541,238.335,306.866,220.554z" fill="#51cbce"/>
	</g>
</g>
<g>
	<g>
		<path d="M268.939,292.623c-8.854,0-16.057,7.202-16.057,16.057c0,8.853,7.202,16.057,16.057,16.057s16.057-7.203,16.057-16.057    C284.996,299.827,277.793,292.623,268.939,292.623z M268.94,309.396c-0.395,0-0.715-0.32-0.715-0.715    c0-0.395,0.32-0.716,0.715-0.716c0.395,0,0.715,0.321,0.715,0.716S269.335,309.396,268.94,309.396z" fill="#51cbce"/>
	</g>
</g>
<g>
</g>
<g>
</g>
<g>
</g>
<g>
</g>
<g>
</g>
<g>
</g>
<g>
</g>
<g>
</g>
<g>
</g>
<g>
</g>
<g>
</g>
<g>
</g>
<g>
</g>
<g>
</g>
<g>
</g>
</svg>
